# xmcd CD database file generated by Grip 3.0.0
# 
# Track frame offsets:
#       150
#       19202
#       36557
#       57530
#       81515
#       101307
#       129050
#       145417
#       204855
#       228950
#       252017
# 
# Disc length: 3629 seconds
# 
# Revision: 2
# Processed by: cddbd v1.4PL0 Copyright (c) Steve Scherf et al.
# Submitted via: Grip 3.0.0
# 
DISCID=900e2b0b
DTITLE=Dino Dvornik and Songkillers - Live In Muenchen
DYEAR=1995
DGENRE=Blues
TTITLE0=Zasto pravis slona od mene
TTITLE1=Mislis da sam blesav
TTITLE2=Ti si mi u mislima
TTITLE3=Ja bih prezivio
TTITLE4=Stvorena za to
TTITLE5=Ella EE
TTITLE6=Gibajmo se
TTITLE7=Jace, manijace
TTITLE8=Nisam mog'o s njom
TTITLE9=Imam rep
TTITLE10=Moja ljubav
EXTD=
EXTT0=
EXTT1=
EXTT2=
EXTT3=
EXTT4=
EXTT5=
EXTT6=
EXTT7=
EXTT8=
EXTT9=
EXTT10=
PLAYORDER=
